<svg width="16" height="20" viewBox="0 0 16 20" fill="none" xmlns="http://www.w3.org/2000/svg">
<path d="M7.42308 16.6256H8.92305V15.6256H10.1731C10.3859 15.6256 10.5641 15.5538 10.7077 15.4102C10.8513 15.2667 10.923 15.0885 10.923 14.8756V11.8756C10.923 11.6628 10.8513 11.4846 10.7077 11.341C10.5641 11.1974 10.3859 11.1256 10.1731 11.1256H6.92305V9.62562H10.923V8.12565H8.92305V7.12565H7.42308V8.12565H6.17308C5.96026 8.12565 5.78205 8.19745 5.63845 8.34105C5.49487 8.48463 5.42308 8.66283 5.42308 8.87565V11.8756C5.42308 12.0885 5.49487 12.2667 5.63845 12.4102C5.78205 12.5538 5.96026 12.6256 6.17308 12.6256H9.42308V14.1256H5.42308V15.6256H7.42308V16.6256ZM2.3077 19.5006C1.80257 19.5006 1.375 19.3256 1.025 18.9756C0.675 18.6256 0.5 18.1981 0.5 17.6929V2.30837C0.5 1.80324 0.675 1.37567 1.025 1.02567C1.375 0.675671 1.80257 0.500671 2.3077 0.500671H10.25L15.5 5.75062V17.6929C15.5 18.1981 15.325 18.6256 14.975 18.9756C14.625 19.3256 14.1974 19.5006 13.6922 19.5006H2.3077ZM9.5 5.88525V2.00065H2.3077C2.23077 2.00065 2.16024 2.0327 2.09612 2.0968C2.03202 2.16091 1.99997 2.23144 1.99997 2.30837V17.6929C1.99997 17.7699 2.03202 17.8404 2.09612 17.9045C2.16024 17.9686 2.23077 18.0006 2.3077 18.0006H13.6922C13.7692 18.0006 13.8397 17.9686 13.9038 17.9045C13.9679 17.8404 14 17.7699 14 17.6929V5.88525H9.5Z" fill="white"/>
</svg>
